<svg id="Layer_1" data-name="Layer 1" xmlns="http://www.w3.org/2000/svg" viewBox="0 0 50 50"><defs><style>.cls-1{fill:#e4ecef;}.cls-2{fill:#47a796;}.cls-3,.cls-4{fill:none;stroke-miterlimit:10;}.cls-3{stroke:#000;}.cls-4{stroke:#47a796;stroke-width:2px;}</style></defs><rect id="Rectangle_443" data-name="Rectangle 443" class="cls-1" x="0.17" y="0.17" width="50" height="50" rx="10"/><circle class="cls-2" cx="25.44" cy="17.56" r="6.67"/><path class="cls-3" d="M25.36,24.65a7,7,0,0,0,7-7,7,7,0,0,0-7-7,7,7,0,0,0-7,7,7,7,0,0,0,7,7Z"/><path class="cls-4" d="M36.22,32.88A16.56,16.56,0,0,0,36,31.2a15,15,0,0,0-.41-1.69,8.76,8.76,0,0,0-.7-1.57,5.85,5.85,0,0,0-1-1.37,4.69,4.69,0,0,0-1.5-.95,5.24,5.24,0,0,0-1.92-.34,1.93,1.93,0,0,0-1,.44l-1.09.7a6.44,6.44,0,0,1-1.4.62,5.61,5.61,0,0,1-3.44,0,6.44,6.44,0,0,1-1.4-.62L21,25.72a1.93,1.93,0,0,0-1-.44,5.2,5.2,0,0,0-1.92.34,4.69,4.69,0,0,0-1.5.95,5.85,5.85,0,0,0-1.05,1.37,8.46,8.46,0,0,0-.7,1.57,15,15,0,0,0-.41,1.69,16.2,16.2,0,0,0-.22,1.68c0,.51,0,1,0,1.58a4.43,4.43,0,0,0,1.31,3.34A4.72,4.72,0,0,0,18.76,39H31.58A4.72,4.72,0,0,0,35,37.8a4.41,4.41,0,0,0,1.31-3.34C36.27,33.92,36.25,33.39,36.22,32.88Z"/><path class="cls-3" d="M37.19,33c0-.57-.12-1.18-.23-1.83a14.58,14.58,0,0,0-.45-1.84,9,9,0,0,0-.76-1.72,6.61,6.61,0,0,0-1.14-1.48,5,5,0,0,0-1.64-1,5.67,5.67,0,0,0-2.09-.38,2.12,2.12,0,0,0-1.13.48l-1.18.76a6.76,6.76,0,0,1-1.53.67,5.8,5.8,0,0,1-3.74,0,6.76,6.76,0,0,1-1.53-.67l-1.18-.76a2.12,2.12,0,0,0-1.13-.48,5.63,5.63,0,0,0-2.09.38,5,5,0,0,0-1.64,1,6.33,6.33,0,0,0-1.14,1.48,9,9,0,0,0-.76,1.72,14.58,14.58,0,0,0-.45,1.84c-.11.65-.19,1.26-.23,1.83s-.06,1.13-.06,1.71a4.82,4.82,0,0,0,1.43,3.64,5.13,5.13,0,0,0,3.68,1.34H32.14a5.13,5.13,0,0,0,3.68-1.34,4.8,4.8,0,0,0,1.43-3.64C37.25,34.08,37.23,33.5,37.19,33Z"/></svg>