<svg id="Layer_1" data-name="Layer 1" xmlns="http://www.w3.org/2000/svg" viewBox="0 0 50 50"><defs><style>.cls-1{fill:#e4ecef;}.cls-2{fill:#47a897;}</style></defs><rect id="Rectangle_443" data-name="Rectangle 443" class="cls-1" width="50" height="50" rx="10"/><g id="Group_147" data-name="Group 147"><rect id="Rectangle_515" data-name="Rectangle 515" class="cls-2" x="17.99" y="14.22" width="8.14" height="2.96"/><path id="Path_470" data-name="Path 470" class="cls-2" d="M34.89,25.91l-3.24.54.54-3.24,3.24-1.08Z"/><path id="Rectangle_516" data-name="Rectangle 516" class="cls-2" d="M20.88,12.73h3v1.56a.67.67,0,0,1-.67.67H20.88a.67.67,0,0,1-.67-.67V13.4A.67.67,0,0,1,20.88,12.73Z"/><g id="Group_144" data-name="Group 144"><path id="Path_471" data-name="Path 471" d="M27.65,19.71H21a.4.4,0,0,0,0,.79h6.69a.38.38,0,0,0,.43-.35.39.39,0,0,0-.35-.44.11.11,0,0,0-.08,0Z"/><path id="Path_472" data-name="Path 472" d="M21,21.88h3.76a.41.41,0,0,0,.44-.36.4.4,0,0,0-.36-.44H21a.4.4,0,0,0,0,.8Z"/><path id="Path_473" data-name="Path 473" d="M19,19.53,17.49,21l-.63-.62a.4.4,0,0,0-.56.57l.92.89a.4.4,0,0,0,.56,0l1.74-1.79a.4.4,0,0,0,.06-.56.41.41,0,0,0-.57-.05.17.17,0,0,0-.06.06Z"/><path id="Path_474" data-name="Path 474" d="M27.65,23.61H21a.4.4,0,0,0-.36.44.39.39,0,0,0,.36.35h6.69a.38.38,0,0,0,.43-.35.39.39,0,0,0-.35-.44Z"/><path id="Path_475" data-name="Path 475" d="M24.72,25H21a.4.4,0,0,0,0,.8h3.76a.41.41,0,0,0,.44-.36A.4.4,0,0,0,24.8,25Z"/><path id="Path_476" data-name="Path 476" d="M19,23.42l-1.47,1.51-.63-.62a.4.4,0,0,0-.56.07.39.39,0,0,0,0,.5l.92.89a.4.4,0,0,0,.56,0L19.52,24a.4.4,0,1,0-.51-.61l-.06.05Z"/><path id="Path_477" data-name="Path 477" d="M19,27.32l-1.47,1.5-.63-.62a.4.4,0,0,0-.56.57l.92.89a.4.4,0,0,0,.56,0l1.74-1.79a.4.4,0,0,0,.06-.56.41.41,0,0,0-.57,0,.17.17,0,0,0-.06.06Z"/><path id="Path_478" data-name="Path 478" d="M19,31.21l-1.47,1.5-.63-.62a.41.41,0,0,0-.56.07.39.39,0,0,0,0,.5l.92.89a.4.4,0,0,0,.56,0l1.74-1.79a.4.4,0,0,0,.06-.56.41.41,0,0,0-.57-.05l-.06.06Z"/><path id="Path_479" data-name="Path 479" d="M35.38,25.37a4.85,4.85,0,0,0,.64-3,.4.4,0,0,0-.35-.34,4.88,4.88,0,0,0-3.53,1,1.9,1.9,0,0,0-.19.21V20.57a.41.41,0,0,0-.44-.36.4.4,0,0,0-.36.36v3.66a4.9,4.9,0,0,0-1.09-1.18V16.34a.38.38,0,0,0-.4-.38H26.89V14.88h3.63a.63.63,0,0,1,.63.61V19a.4.4,0,0,0,.44.36.39.39,0,0,0,.35-.36V15.49a1.39,1.39,0,0,0-1.42-1.37H26.81a1.09,1.09,0,0,0-1-.66H24.49V12.9a.92.92,0,0,0-.93-.9H21.05a.92.92,0,0,0-.93.9v.56H18.8a1.1,1.1,0,0,0-1,.66H14.1a1.39,1.39,0,0,0-1.43,1.37V36.74a1.41,1.41,0,0,0,1.43,1.38H29.69a2.62,2.62,0,0,0,1.86-.58,2.63,2.63,0,0,0,1.63.59,2,2,0,0,0,.35,0,5.43,5.43,0,0,0,3.67-3,.37.37,0,0,0-.14-.51h0a.42.42,0,0,0-.55.15,4.74,4.74,0,0,1-3.07,2.62,1.85,1.85,0,0,1-1.6-.58.4.4,0,0,0-.57,0,1.88,1.88,0,0,1-2.09.46,5.37,5.37,0,0,1-2.54-2.42A10.91,10.91,0,0,1,25.23,30a3.53,3.53,0,0,1,1-2.83A7,7,0,0,1,30.9,25.5a3,3,0,0,1,.11.32A5.33,5.33,0,0,1,31.17,27a2.88,2.88,0,0,1-1.23-.46.41.41,0,0,0-.56.07.38.38,0,0,0,.06.53h0a3.65,3.65,0,0,0,2.09.64h0a3.66,3.66,0,0,0,2.1-.64.39.39,0,0,0,.07-.53l-.07-.07A3.44,3.44,0,0,0,34.8,26c2.67.91,3.14,2.71,3.05,4.07a11.13,11.13,0,0,1-.71,3.33.38.38,0,0,0,.21.49.4.4,0,0,0,.53-.22h0a12,12,0,0,0,.76-3.55,4.55,4.55,0,0,0-3.28-4.72ZM18.52,14.5a.28.28,0,0,1,.28-.27h1.72a.39.39,0,0,0,.4-.38h0V12.9a.13.13,0,0,1,.14-.13h2.5a.13.13,0,0,1,.14.13v.95a.4.4,0,0,0,.4.38h1.72a.28.28,0,0,1,.28.27v1.8a.28.28,0,0,1-.28.27h-7a.28.28,0,0,1-.28-.27h0Zm7.12,12.18a4.25,4.25,0,0,0-.64.84H21a.4.4,0,0,0-.4.37.39.39,0,0,0,.37.4h3.72a3.2,3.2,0,0,0-.15.61H21a.39.39,0,0,0,0,.77h3.5c0,.14,0,.28,0,.42a12,12,0,0,0,.16,1.34H21a.39.39,0,0,0-.4.37.38.38,0,0,0,.37.4h3.82c.05.2.11.4.17.61H21a.38.38,0,1,0,0,.76h4.25a9.47,9.47,0,0,0,.76,1.61l.2.33H15.35v-8a.39.39,0,0,0-.44-.35.4.4,0,0,0-.36.35v8.41a.41.41,0,0,0,.4.39H26.7a6.61,6.61,0,0,0,1.11,1.07H14.09a.62.62,0,0,1-.63-.61V15.5a.62.62,0,0,1,.63-.61h3.63V16H15a.38.38,0,0,0-.4.38h0V26a.4.4,0,0,0,.8,0V16.73h2.46a1.09,1.09,0,0,0,1,.61h7a1.07,1.07,0,0,0,1-.61h2.47v5.81a.4.4,0,0,0-.47.17.38.38,0,0,0,.13.52h0l.33.2v1.5a6.82,6.82,0,0,0-3.63,1.76Zm4.42-1.88v-.7a3.53,3.53,0,0,1,.49.66ZM32,27a1.77,1.77,0,0,0,0-.22h0a6,6,0,0,0,.85-.05A2.8,2.8,0,0,1,32,27Zm-.07-1a3.48,3.48,0,0,1,.79-2.46,3.78,3.78,0,0,1,2.55-.77,3.43,3.43,0,0,1-.79,2.46A3.77,3.77,0,0,1,31.9,26Z"/></g></g></svg>