<svg id="Layer_1" data-name="Layer 1" xmlns="http://www.w3.org/2000/svg" viewBox="0 0 50 50"><defs><style>.cls-1{fill:#e4ecef;}.cls-2{fill:#47a897;}</style></defs><rect id="Rectangle_533" data-name="Rectangle 533" class="cls-1" width="50" height="50" rx="10"/><g id="Group_148" data-name="Group 148"><rect id="Rectangle_519" data-name="Rectangle 519" class="cls-2" x="10.56" y="22.61" width="1.57" height="4.18"/><rect id="Rectangle_520" data-name="Rectangle 520" class="cls-2" x="15.5" y="16.52" width="4.7" height="16.35"/><rect id="Rectangle_521" data-name="Rectangle 521" class="cls-2" x="28.93" y="16.52" width="4.7" height="16.35"/><rect id="Rectangle_522" data-name="Rectangle 522" class="cls-2" x="37.01" y="22.61" width="1.57" height="4.18"/><g id="Group_145" data-name="Group 145"><path id="Path_469" data-name="Path 469" d="M38,22h-.71V19.07a1.23,1.23,0,0,0-1.21-1.25H34.26a1.13,1.13,0,0,0-.36.06v-.17A1.69,1.69,0,0,0,32.23,16H30a1.69,1.69,0,0,0-1.67,1.71v5.1H20.7v-5.1A1.69,1.69,0,0,0,19,16H16.77a1.68,1.68,0,0,0-1.67,1.71v.17a1.19,1.19,0,0,0-.37-.06H12.92a1.24,1.24,0,0,0-1.22,1.24v.56a.43.43,0,0,0,.85,0h0v-.56a.37.37,0,0,1,.37-.37h1.81a.38.38,0,0,1,.37.37V30.4a.38.38,0,0,1-.37.37H12.92a.37.37,0,0,1-.37-.37V21.48a.43.43,0,0,0-.43-.43.42.42,0,0,0-.42.43h0V22H11a1,1,0,0,0-1,1h0v3.46a1,1,0,0,0,1,1h.71v2.92a1.24,1.24,0,0,0,1.22,1.25h1.81a1.19,1.19,0,0,0,.37-.06v.17a1.68,1.68,0,0,0,1.67,1.71H19a1.69,1.69,0,0,0,1.67-1.71v-5.1h.62a.44.44,0,0,0,0-.87H20.7v-2.1h7.59v2.1H23.16a.44.44,0,0,0-.41.46.43.43,0,0,0,.41.41h5.13v5.1A1.69,1.69,0,0,0,30,33.46h2.27a1.69,1.69,0,0,0,1.67-1.71v-.17a1.15,1.15,0,0,0,.37.06h1.81a1.24,1.24,0,0,0,1.22-1.25v-.58a.43.43,0,0,0-.43-.43.42.42,0,0,0-.42.42h0v.58a.38.38,0,0,1-.37.38H34.27a.37.37,0,0,1-.37-.38V19.06a.37.37,0,0,1,.37-.37h1.81a.38.38,0,0,1,.37.37v8.88a.41.41,0,0,0,.42.42.44.44,0,0,0,.43-.42h0v-.47H38a1,1,0,0,0,1-1h0V23a1,1,0,0,0-1-1ZM11,26.61a.15.15,0,0,1-.14-.15h0V23a.15.15,0,0,1,.14-.15h.71v3.76Zm8.86,5.14a.82.82,0,0,1-.82.84H16.77a.82.82,0,0,1-.82-.84v-14a.82.82,0,0,1,.82-.84H19a.82.82,0,0,1,.82.84Zm13.2,0a.83.83,0,0,1-.82.84H30a.82.82,0,0,1-.82-.84v-14a.82.82,0,0,1,.82-.84h2.27a.83.83,0,0,1,.82.84Zm5.09-5.29a.15.15,0,0,1-.14.15h-.71V22.85H38a.15.15,0,0,1,.14.15h0Z"/></g></g></svg>