<svg id="Layer_1" data-name="Layer 1" xmlns="http://www.w3.org/2000/svg" viewBox="0 0 50 50"><defs><style>.cls-1{fill:#e4ecef;}.cls-2,.cls-3,.cls-4{fill:#47a796;}.cls-2,.cls-3,.cls-5{stroke:#000;stroke-miterlimit:10;}.cls-2{stroke-width:0.5px;}.cls-5{fill:none;}</style></defs><rect id="Rectangle_443" data-name="Rectangle 443" class="cls-1" width="50" height="50" rx="10"/><path class="cls-2" d="M25,14.65a.79.79,0,0,1-.8-.79V12.21a.8.8,0,0,1,1.6,0v1.65A.79.79,0,0,1,25,14.65Z"/><path class="cls-2" d="M32.58,19a.79.79,0,0,1,.3-1.09l1.37-.79a.79.79,0,0,1,1.09.29.8.8,0,0,1-.29,1.09l-1.38.79A.8.8,0,0,1,32.58,19Z"/><path class="cls-2" d="M14.66,29.38A.8.8,0,0,1,15,28.29l1.38-.8a.79.79,0,0,1,1.09.3.78.78,0,0,1-.3,1.08l-1.37.8A.8.8,0,0,1,14.66,29.38Z"/><path class="cls-2" d="M29.38,15.82a.79.79,0,0,1-.29-1.08l.79-1.38A.8.8,0,0,1,31,13.07a.79.79,0,0,1,.29,1.08l-.79,1.38A.8.8,0,0,1,29.38,15.82Z"/><path class="cls-2" d="M19.53,15.53l-.79-1.38A.79.79,0,0,1,19,13.07a.8.8,0,0,1,1.09.29l.79,1.38a.79.79,0,0,1-.29,1.08A.8.8,0,0,1,19.53,15.53Z"/><path class="cls-2" d="M34.25,29.67l-1.38-.8a.8.8,0,0,1,.8-1.38l1.38.8a.8.8,0,0,1-.8,1.38Z"/><path class="cls-2" d="M16.33,19.32,15,18.53a.8.8,0,0,1-.29-1.09.79.79,0,0,1,1.09-.29l1.37.79a.8.8,0,1,1-.79,1.38Z"/><path class="cls-2" d="M36.14,24.2H34.55a.79.79,0,0,1-.79-.79.79.79,0,0,1,.79-.8h1.59a.8.8,0,0,1,.8.8A.79.79,0,0,1,36.14,24.2Z"/><path class="cls-2" d="M15.45,24.2H13.86a.79.79,0,0,1-.8-.79.8.8,0,0,1,.8-.8h1.59a.79.79,0,0,1,.79.8A.79.79,0,0,1,15.45,24.2Z"/><path class="cls-3" d="M25,38.59a3.18,3.18,0,0,0,3.18-3.19H21.82A3.18,3.18,0,0,0,25,38.59Z"/><path class="cls-4" d="M25.84,28.57h-1a7.74,7.74,0,0,1-1-3l-1-2v-1a6.77,6.77,0,0,0,2,1,4.23,4.23,0,0,0,2-1h0c1.1.15,1.05,1.57,0,1a6.75,6.75,0,0,0-1,2A9.51,9.51,0,0,0,25.84,28.57Z"/><path class="cls-5" d="M25,16.24a7.23,7.23,0,0,0-7.08,6,7.11,7.11,0,0,0,1.25,5.28,13.37,13.37,0,0,1,2.53,6.2h6.59a12.26,12.26,0,0,1,2.42-6,7.06,7.06,0,0,0,1.45-4.31A7.19,7.19,0,0,0,25,16.24ZM27.15,24,25.8,25.33v2.85a.8.8,0,0,1-1.6,0V25.33L22.85,24A.79.79,0,0,1,24,22.85l1,1,1-1A.79.79,0,0,1,27.15,24Z"/></svg>