<svg id="Layer_1" data-name="Layer 1" xmlns="http://www.w3.org/2000/svg" viewBox="0 0 50 50"><defs><style>.cls-1{fill:#e4ecef;}.cls-2{fill:none;}.cls-2,.cls-3{stroke:#000;stroke-miterlimit:10;}.cls-3{fill:#47a796;}</style></defs><rect id="Rectangle_443" data-name="Rectangle 443" class="cls-1" width="50" height="50" rx="10"/><rect class="cls-2" x="17.65" y="16" width="14.71" height="18.27"/><path class="cls-3" d="M18.65,11.86h12.7a1,1,0,0,1,1,1v3a0,0,0,0,1,0,0H17.65a0,0,0,0,1,0,0v-3A1,1,0,0,1,18.65,11.86Z"/><path class="cls-3" d="M18.65,34.14h12.7a1,1,0,0,1,1,1v3a0,0,0,0,1,0,0H17.65a0,0,0,0,1,0,0v-3A1,1,0,0,1,18.65,34.14Z" transform="translate(50 72.28) rotate(180)"/><circle class="cls-1" cx="25" cy="36.14" r="0.95"/><rect class="cls-1" x="22.28" y="13.29" width="5.44" height="1.14" rx="0.5"/></svg>